<svg width="20" height="21" viewBox="0 0 20 21" fill="none" xmlns="http://www.w3.org/2000/svg">
<mask id="mask0_1917_4624" style="mask-type:alpha" maskUnits="userSpaceOnUse" x="0" y="0" width="20" height="21">
<rect y="0.977051" width="20" height="20" fill="#D9D9D9"/>
</mask>
<g mask="url(#mask0_1917_4624)">
<path d="M9.99996 17.2385C11.6302 15.779 12.8778 14.3792 13.7427 13.0389C14.6075 11.6986 15.04 10.5247 15.04 9.51721C15.04 7.99805 14.5573 6.74916 13.592 5.77055C12.6268 4.79194 11.4294 4.30263 9.99996 4.30263C8.57052 4.30263 7.37315 4.79194 6.40788 5.77055C5.4426 6.74916 4.95996 7.99805 4.95996 9.51721C4.95996 10.5247 5.39239 11.6986 6.25725 13.0389C7.12211 14.3792 8.36968 15.779 9.99996 17.2385ZM9.99996 18.4274C9.8376 18.4274 9.67524 18.3994 9.51288 18.3435C9.35038 18.2874 9.20343 18.2005 9.07204 18.083C8.32427 17.3939 7.62447 16.6842 6.97267 15.9539C6.321 15.2237 5.75454 14.4938 5.27329 13.7641C4.79191 13.0344 4.411 12.3111 4.13059 11.5943C3.85017 10.8774 3.70996 10.185 3.70996 9.51721C3.70996 7.59416 4.33197 6.03728 5.576 4.84659C6.82017 3.65589 8.29482 3.06055 9.99996 3.06055C11.7051 3.06055 13.1798 3.65589 14.4239 4.84659C15.6679 6.03728 16.29 7.59416 16.29 9.51721C16.29 10.185 16.1498 10.876 15.8693 11.5901C15.5889 12.3044 15.2094 13.0278 14.7308 13.7601C14.252 14.4925 13.6868 15.2224 13.0352 15.9499C12.3835 16.6776 11.6837 17.3859 10.9358 18.0749C10.8063 18.1924 10.6592 18.2805 10.4943 18.3393C10.3296 18.398 10.1648 18.4274 9.99996 18.4274ZM10.0014 10.8649C10.416 10.8649 10.7704 10.7173 11.0648 10.422C11.3592 10.1267 11.5064 9.7718 11.5064 9.35721C11.5064 8.94263 11.3588 8.58812 11.0635 8.29367C10.7682 7.99937 10.4132 7.85221 9.9985 7.85221C9.58392 7.85221 9.22947 7.99985 8.93517 8.29513C8.64072 8.59041 8.4935 8.94541 8.4935 9.36013C8.4935 9.77471 8.64114 10.1292 8.93642 10.4235C9.2317 10.7178 9.5867 10.8649 10.0014 10.8649Z" fill="#262626"/>
</g>
</svg>
