<svg width="20" height="21" viewBox="0 0 20 21" fill="none" xmlns="http://www.w3.org/2000/svg">
<path d="M15.6832 4.88232C16.5157 5.65873 17.1804 6.59749 17.6362 7.6407C18.092 8.6839 18.3291 9.80943 18.3331 10.9478C18.3371 12.0863 18.1078 13.2134 17.6593 14.2598C17.2108 15.3061 16.5527 16.2495 15.7256 17.0317M13.4098 7.32017C13.9094 7.78601 14.3082 8.34927 14.5817 8.97519C14.8551 9.60112 14.9974 10.2764 14.9998 10.9595C15.0022 11.6425 14.8646 12.3188 14.5955 12.9466C14.3264 13.5745 13.9316 14.1405 13.4353 14.6098M6.23342 13.816L7.62945 15.5436C8.35719 16.4442 8.72107 16.8945 9.03986 16.9435C9.31583 16.9859 9.59471 16.8873 9.78269 16.6809C9.99984 16.4424 9.99984 15.8634 9.99984 14.7056V7.24832C9.99984 6.09045 9.99984 5.51151 9.78269 5.27302C9.59471 5.06656 9.31583 4.96797 9.03986 5.0104C8.72107 5.05942 8.35719 5.50971 7.62945 6.4103L6.23342 8.13788C6.0864 8.31981 6.01289 8.41078 5.92194 8.47624C5.84135 8.53423 5.75106 8.57736 5.65531 8.60358C5.54723 8.63319 5.43027 8.63319 5.19636 8.63319H4.01025C3.38009 8.63319 3.065 8.63319 2.81037 8.71731C2.30926 8.88285 1.91617 9.27594 1.75062 9.77705C1.6665 10.0317 1.6665 10.3468 1.6665 10.9769C1.6665 11.6071 1.6665 11.9222 1.75062 12.1768C1.91617 12.6779 2.30926 13.071 2.81037 13.2366C3.065 13.3207 3.38009 13.3207 4.01025 13.3207H5.19636C5.43027 13.3207 5.54723 13.3207 5.65531 13.3503C5.75106 13.3765 5.84135 13.4196 5.92194 13.4776C6.01289 13.5431 6.0864 13.6341 6.23342 13.816Z" stroke="#2B89FE" stroke-width="1.66667" stroke-linecap="round" stroke-linejoin="round"/>
</svg>
