<svg width="18" height="18" viewBox="0 0 18 18" fill="none" xmlns="http://www.w3.org/2000/svg">
<g clip-path="url(#clip0_2119_4013)">
<rect width="18" height="18" rx="2" fill="#FFD129"/>
<mask id="mask0_2119_4013" style="mask-type:alpha" maskUnits="userSpaceOnUse" x="0" y="0" width="18" height="18">
<rect width="18" height="18" fill="#D9D9D9"/>
</mask>
<g mask="url(#mask0_2119_4013)">
<path d="M7.49961 10.2001L11.9246 5.7751C12.0621 5.6376 12.2371 5.56885 12.4496 5.56885C12.6621 5.56885 12.8371 5.6376 12.9746 5.7751C13.1121 5.9126 13.1809 6.0876 13.1809 6.3001C13.1809 6.5126 13.1121 6.6876 12.9746 6.8251L8.02461 11.7751C7.87461 11.9251 7.69961 12.0001 7.49961 12.0001C7.29961 12.0001 7.12461 11.9251 6.97461 11.7751L5.02461 9.8251C4.88711 9.6876 4.81836 9.5126 4.81836 9.3001C4.81836 9.0876 4.88711 8.9126 5.02461 8.7751C5.16211 8.6376 5.33711 8.56885 5.54961 8.56885C5.76211 8.56885 5.93711 8.6376 6.07461 8.7751L7.49961 10.2001Z" fill="#262626"/>
</g>
</g>
<rect x="0.5" y="0.5" width="17" height="17" rx="1.5" stroke="#1F1F1F"/>
<defs>
<clipPath id="clip0_2119_4013">
<rect width="18" height="18" rx="2" fill="white"/>
</clipPath>
</defs>
</svg>
