<svg width="24" height="24" viewBox="0 0 24 24" fill="none" xmlns="http://www.w3.org/2000/svg">
<mask id="mask0_1985_3852" style="mask-type:alpha" maskUnits="userSpaceOnUse" x="0" y="0" width="24" height="24">
<rect width="24" height="24" fill="#D9D9D9"/>
</mask>
<g mask="url(#mask0_1985_3852)">
<path d="M9.1845 12L16.7173 19.5328C16.9159 19.7314 17.0128 19.9653 17.0078 20.2345C17.0026 20.5038 16.9007 20.7378 16.702 20.9365C16.5032 21.1352 16.2692 21.2345 16 21.2345C15.7308 21.2345 15.4968 21.1352 15.298 20.9365L7.627 13.2808C7.44617 13.0999 7.31217 12.8973 7.225 12.673C7.13784 12.4487 7.09425 12.2243 7.09425 12C7.09425 11.7757 7.13784 11.5513 7.225 11.327C7.31217 11.1027 7.44617 10.9001 7.627 10.7193L15.298 3.04801C15.4968 2.84935 15.7334 2.7526 16.0078 2.75776C16.2821 2.76293 16.5186 2.86485 16.7173 3.06351C16.9159 3.26218 17.0153 3.49618 17.0153 3.76551C17.0153 4.03468 16.9159 4.2686 16.7173 4.46727L9.1845 12Z" fill="#262626"/>
</g>
</svg>
