<svg width="20" height="20" viewBox="0 0 20 20" fill="none" xmlns="http://www.w3.org/2000/svg">
<path d="M2 2H3.6008L5.72986 11.941C5.80796 12.305 6.01054 12.6305 6.30272 12.8613C6.59489 13.0921 6.9584 13.2139 7.33066 13.2056H15.1586C15.5229 13.205 15.8761 13.0802 16.1599 12.8517C16.4437 12.6232 16.641 12.3048 16.7193 11.949L18.04 6.002H4.45723M7.56277 17.1676C7.56277 17.6096 7.20442 17.968 6.76237 17.968C6.32033 17.968 5.96198 17.6096 5.96198 17.1676C5.96198 16.7255 6.32033 16.3672 6.76237 16.3672C7.20442 16.3672 7.56277 16.7255 7.56277 17.1676ZM16.3672 17.1676C16.3672 17.6096 16.0088 17.968 15.5668 17.968C15.1247 17.968 14.7664 17.6096 14.7664 17.1676C14.7664 16.7255 15.1247 16.3672 15.5668 16.3672C16.0088 16.3672 16.3672 16.7255 16.3672 17.1676Z" stroke="black" stroke-width="2" stroke-linecap="round" stroke-linejoin="round"/>
</svg>
