<svg width="24" height="24" viewBox="0 0 24 24" fill="none" xmlns="http://www.w3.org/2000/svg">
<mask id="mask0_1985_3864" style="mask-type:alpha" maskUnits="userSpaceOnUse" x="0" y="0" width="24" height="24">
<rect width="24" height="24" fill="#D9D9D9"/>
</mask>
<g mask="url(#mask0_1985_3864)">
<path d="M6.92688 18.1268C6.63589 18.4178 6.16411 18.4178 5.87313 18.1268V18.1268C5.58214 17.8358 5.58214 17.3641 5.87313 17.0731L10.9463 11.9999L5.87313 6.92682C5.58214 6.63583 5.58214 6.16405 5.87313 5.87307V5.87307C6.16411 5.58208 6.63589 5.58208 6.92688 5.87307L12 10.9462L17.0731 5.87307C17.3641 5.58208 17.8359 5.58208 18.1269 5.87307V5.87307C18.4179 6.16405 18.4179 6.63583 18.1269 6.92682L13.0538 11.9999L18.1269 17.0731C18.4179 17.3641 18.4179 17.8358 18.1269 18.1268V18.1268C17.8359 18.4178 17.3641 18.4178 17.0731 18.1268L12 13.0537L6.92688 18.1268Z" fill="#262626"/>
</g>
</svg>
