<svg width="36" height="36" viewBox="0 0 36 36" fill="none" xmlns="http://www.w3.org/2000/svg">
<path fill-rule="evenodd" clip-rule="evenodd" d="M11.3485 7.17381C8.75848 7.87993 6.80696 9.49486 5.75024 11.8067C4.86015 13.7539 4.76261 15.7806 5.45471 17.9496L5.71028 18.7507L5.35357 21.0995C5.15738 22.3914 5.01367 23.4651 5.0343 23.4858C5.05483 23.5064 6.15072 23.3601 7.46952 23.1606L9.86728 22.7981L10.3743 22.9979C11.3283 23.3739 12.443 23.5374 13.6961 23.4854C14.6874 23.4441 14.9973 23.3868 15.855 23.0862C16.4058 22.8931 16.9326 22.7023 17.0256 22.6624C17.1621 22.6036 17.2167 22.6734 17.3083 23.0235C17.3708 23.2622 17.6033 23.8357 17.8249 24.2978C18.5619 25.8349 20.1056 27.1471 21.8637 27.7311C22.4587 27.9288 22.7617 27.9631 23.8666 27.9583C24.9814 27.9534 25.2692 27.9173 25.8695 27.7072L26.5705 27.4618L28.553 27.75C29.6433 27.9084 30.5541 28.0197 30.5766 27.9971C30.5992 27.9744 30.4841 27.0805 30.3207 26.0105L30.0236 24.065L30.2232 23.4608C30.5661 22.4223 30.6702 21.4007 30.5329 20.4199C30.3043 18.7853 29.6429 17.5118 28.4268 16.3646C27.0942 15.1075 25.6841 14.5476 23.8666 14.5538C23.1831 14.5561 22.5486 14.6175 22.1949 14.7154C21.8813 14.8021 21.5996 14.8481 21.569 14.8174C21.5383 14.7867 21.5132 14.5961 21.5132 14.3937C21.5132 13.7637 21.1339 12.4806 20.6696 11.5403C19.6656 9.50718 17.878 7.98899 15.6547 7.28136C14.6404 6.9584 12.3486 6.90121 11.3485 7.17381ZM15.5654 8.85874C17.0966 9.43167 18.3118 10.4305 19.0954 11.7605C21.1279 15.21 19.8437 19.5291 16.2556 21.3108C14.495 22.185 12.3651 22.2308 10.5103 21.4341C10.0772 21.2481 10.0565 21.2486 8.47768 21.4875C7.60031 21.6203 6.86134 21.7076 6.8354 21.6818C6.80957 21.6558 6.899 20.9061 7.03419 20.0158L7.28005 18.3969L7.0423 17.8729C6.91151 17.5845 6.72805 16.9673 6.63462 16.501C6.02103 13.4399 7.67151 10.3043 10.5715 9.02178C11.5461 8.59075 12.1463 8.48861 13.5016 8.52316C14.6049 8.5512 14.8498 8.59106 15.5654 8.85874ZM12.0996 11.6676C9.63671 12.6152 8.6972 15.7604 10.5122 17.7466C11.4857 18.8117 12.9266 19.2379 14.2602 18.8553C14.5866 18.7616 14.9601 18.6164 15.0904 18.5327C15.3179 18.3866 15.3471 18.3999 15.8167 18.8624L16.306 19.3444L16.8567 18.8006L17.4073 18.2569L16.9456 17.7881L16.4839 17.3195L16.7563 16.6384C17.496 14.7896 16.6211 12.6389 14.821 11.8121C14.0812 11.4722 12.786 11.4034 12.0996 11.6676ZM14.0102 13.1067C14.913 13.3773 15.5056 14.229 15.503 15.2523C15.5007 16.1435 15.3981 16.2291 14.9071 15.7498L14.5018 15.3539L13.9518 15.8971L13.4019 16.4402L13.8192 16.8654L14.2366 17.2907L13.9627 17.3948C13.3194 17.6394 12.2819 17.3958 11.7144 16.8668C11.29 16.4713 11.0571 15.8969 11.0571 15.2457C11.0571 13.6688 12.4701 12.6453 14.0102 13.1067ZM24.9303 16.1408C27.5471 16.6955 29.408 19.318 29.0385 21.9306C28.977 22.3655 28.836 22.9265 28.725 23.1772C28.4835 23.7232 28.4776 23.9715 28.6766 25.199C28.7605 25.7162 28.8047 26.1638 28.7749 26.1937C28.745 26.2235 28.202 26.1703 27.5681 26.0756L26.4158 25.9034L25.6919 26.1675C24.8206 26.4855 23.6167 26.5889 22.7887 26.4169C20.7755 25.9984 19.0657 24.2506 18.6892 22.226C18.5754 21.6138 18.5762 21.6095 18.8545 21.3905C19.7623 20.6765 20.955 18.686 21.2993 17.3106C21.5082 16.4762 21.5968 16.4058 22.765 16.1462C23.5541 15.9708 24.1218 15.9694 24.9303 16.1408ZM22.861 17.9876C22.4134 18.1909 21.9555 18.6787 21.7483 19.1731C21.6486 19.4112 21.6133 20.0849 21.6133 21.7519V24.0083H22.3644H23.1155V23.1571V22.3059H23.8666H24.6177V23.1571V24.0083H25.3688H26.1199V21.8678C26.1199 19.5986 26.0608 19.2193 25.613 18.6137C25.4932 18.4517 25.1804 18.2021 24.9178 18.0592C24.3287 17.7386 23.4747 17.7088 22.861 17.9876ZM24.4148 19.5713C24.575 19.775 24.6198 19.9531 24.5974 20.2974L24.5676 20.7536L23.8416 20.7831L23.1155 20.8125V20.2573C23.1155 19.5836 23.3351 19.3015 23.8593 19.3015C24.1128 19.3015 24.2581 19.3721 24.4148 19.5713Z" fill="black"/>
</svg>
