<svg width="16" height="17" viewBox="0 0 16 17" fill="none" xmlns="http://www.w3.org/2000/svg">
<mask id="mask0_1892_3503" style="mask-type:alpha" maskUnits="userSpaceOnUse" x="0" y="0" width="16" height="17">
<rect y="0.5" width="16" height="16" fill="#D9D9D9"/>
</mask>
<g mask="url(#mask0_1892_3503)">
<path d="M8 8.2946C7.35833 8.2946 6.80906 8.06615 6.35217 7.60926C5.89517 7.15226 5.66667 6.60293 5.66667 5.96126C5.66667 5.3196 5.89517 4.77032 6.35217 4.31343C6.80906 3.85643 7.35833 3.62793 8 3.62793C8.64167 3.62793 9.19094 3.85643 9.64783 4.31343C10.1048 4.77032 10.3333 5.3196 10.3333 5.96126C10.3333 6.60293 10.1048 7.15226 9.64783 7.60926C9.19094 8.06615 8.64167 8.2946 8 8.2946ZM3 12.3588V11.8894C3 11.563 3.08867 11.2607 3.266 10.9824C3.44333 10.7042 3.68033 10.4903 3.977 10.3408C4.63589 10.0178 5.30061 9.77549 5.97117 9.61393C6.64172 9.45237 7.318 9.3716 8 9.3716C8.682 9.3716 9.35828 9.45237 10.0288 9.61393C10.6994 9.77549 11.3641 10.0178 12.023 10.3408C12.3197 10.4903 12.5567 10.7042 12.734 10.9824C12.9113 11.2607 13 11.563 13 11.8894V12.3588C13 12.6399 12.9015 12.879 12.7045 13.0761C12.5075 13.2731 12.2684 13.3716 11.9872 13.3716H4.01283C3.73161 13.3716 3.4925 13.2731 3.2955 13.0761C3.0985 12.879 3 12.6399 3 12.3588ZM4 12.3716H12V11.8894C12 11.7544 11.9609 11.6294 11.8827 11.5144C11.8044 11.3995 11.6983 11.3058 11.5642 11.2331C10.9897 10.9502 10.4041 10.7359 9.80717 10.5901C9.21017 10.4444 8.60778 10.3716 8 10.3716C7.39222 10.3716 6.78983 10.4444 6.19283 10.5901C5.59594 10.7359 5.01028 10.9502 4.43583 11.2331C4.30172 11.3058 4.19556 11.3995 4.11733 11.5144C4.03911 11.6294 4 11.7544 4 11.8894V12.3716ZM8 7.2946C8.36667 7.2946 8.68056 7.16404 8.94167 6.90293C9.20278 6.64182 9.33333 6.32793 9.33333 5.96126C9.33333 5.5946 9.20278 5.28071 8.94167 5.0196C8.68056 4.75849 8.36667 4.62793 8 4.62793C7.63333 4.62793 7.31944 4.75849 7.05833 5.0196C6.79722 5.28071 6.66667 5.5946 6.66667 5.96126C6.66667 6.32793 6.79722 6.64182 7.05833 6.90293C7.31944 7.16404 7.63333 7.2946 8 7.2946Z" fill="#595959"/>
</g>
</svg>
