<svg width="24" height="24" viewBox="0 0 24 24" fill="none" xmlns="http://www.w3.org/2000/svg">
<mask id="mask0_1985_3851" style="mask-type:alpha" maskUnits="userSpaceOnUse" x="0" y="0" width="24" height="24">
<rect width="24" height="24" fill="#D9D9D9"/>
</mask>
<g mask="url(#mask0_1985_3851)">
<path d="M9.51925 15.6153C7.81158 15.6153 6.36542 15.023 5.18075 13.8385C3.99625 12.6538 3.404 11.2077 3.404 9.50002C3.404 7.79235 3.99625 6.34618 5.18075 5.16152C6.36542 3.97702 7.81158 3.38477 9.51925 3.38477C11.2269 3.38477 12.6731 3.97702 13.8577 5.16152C15.0422 6.34618 15.6345 7.79235 15.6345 9.50002C15.6345 10.2142 15.5147 10.8963 15.275 11.5463C15.0352 12.1963 14.7152 12.7616 14.3152 13.2423L20.0692 18.9963C20.2077 19.1346 20.2786 19.3086 20.2817 19.5183C20.2849 19.7279 20.2141 19.9052 20.0692 20.05C19.9244 20.1948 19.7487 20.2673 19.5422 20.2673C19.3359 20.2673 19.1603 20.1948 19.0155 20.05L13.2615 14.296C12.7615 14.7088 12.1865 15.0319 11.5365 15.2653C10.8865 15.4986 10.2141 15.6153 9.51925 15.6153ZM9.51925 14.1155C10.8077 14.1155 11.8991 13.6683 12.7932 12.774C13.6876 11.8798 14.1347 10.7885 14.1347 9.50002C14.1347 8.21152 13.6876 7.12018 12.7932 6.22601C11.8991 5.33168 10.8077 4.88452 9.51925 4.88452C8.23075 4.88452 7.13942 5.33168 6.24525 6.22601C5.35092 7.12018 4.90375 8.21152 4.90375 9.50002C4.90375 10.7885 5.35092 11.8798 6.24525 12.774C7.13942 13.6683 8.23075 14.1155 9.51925 14.1155Z" fill="#262626"/>
</g>
</svg>
