<svg width="36" height="36" viewBox="0 0 36 36" fill="none" xmlns="http://www.w3.org/2000/svg">
<path d="M17.5003 7.08322C11.7503 7.08322 7.08367 11.7499 7.08367 17.4999C7.08367 23.2499 11.7503 27.9166 17.5003 27.9166C23.2503 27.9166 27.917 23.2499 27.917 17.4999C27.917 11.7499 23.2503 7.08322 17.5003 7.08322ZM12.6566 24.2707C14.0212 23.2916 15.6878 22.7082 17.5003 22.7082C19.3128 22.7082 20.9795 23.2916 22.3441 24.2707C20.9795 25.2499 19.3128 25.8332 17.5003 25.8332C15.6878 25.8332 14.0212 25.2499 12.6566 24.2707ZM23.8962 22.8332C22.1358 21.4582 19.917 20.6249 17.5003 20.6249C15.0837 20.6249 12.8649 21.4582 11.1045 22.8332C9.89617 21.3853 9.167 19.5311 9.167 17.4999C9.167 12.8957 12.8962 9.16656 17.5003 9.16656C22.1045 9.16656 25.8337 12.8957 25.8337 17.4999C25.8337 19.5311 25.1045 21.3853 23.8962 22.8332Z" fill="black"/>
<path d="M17.5001 11.2498C15.4897 11.2498 13.8543 12.8852 13.8543 14.8957C13.8543 16.9061 15.4897 18.5415 17.5001 18.5415C19.5105 18.5415 21.146 16.9061 21.146 14.8957C21.146 12.8852 19.5105 11.2498 17.5001 11.2498ZM17.5001 16.4582C16.6355 16.4582 15.9376 15.7602 15.9376 14.8957C15.9376 14.0311 16.6355 13.3332 17.5001 13.3332C18.3647 13.3332 19.0626 14.0311 19.0626 14.8957C19.0626 15.7602 18.3647 16.4582 17.5001 16.4582Z" fill="black"/>
</svg>
