<svg width="16" height="17" viewBox="0 0 16 17" fill="none" xmlns="http://www.w3.org/2000/svg">
<mask id="mask0_1805_4281" style="mask-type:alpha" maskUnits="userSpaceOnUse" x="0" y="0" width="16" height="17">
<rect y="0.5" width="16" height="16" fill="#D9D9D9"/>
</mask>
<g mask="url(#mask0_1805_4281)">
<path d="M2.87216 13.5C2.53538 13.5 2.25033 13.3833 2.01699 13.15C1.78366 12.9167 1.66699 12.6316 1.66699 12.2948V4.70517C1.66699 4.36839 1.78366 4.08333 2.01699 3.85C2.25033 3.61667 2.53538 3.5 2.87216 3.5H13.1285C13.4653 3.5 13.7503 3.61667 13.9837 3.85C14.217 4.08333 14.3337 4.36839 14.3337 4.70517V12.2948C14.3337 12.6316 14.217 12.9167 13.9837 13.15C13.7503 13.3833 13.4653 13.5 13.1285 13.5H2.87216ZM2.66699 8.23067H13.3337V6.10267H2.66699V8.23067Z" fill="#FFC000"/>
</g>
</svg>
