<svg width="16" height="17" viewBox="0 0 16 17" fill="none" xmlns="http://www.w3.org/2000/svg">
<mask id="mask0_1805_4277" style="mask-type:alpha" maskUnits="userSpaceOnUse" x="0" y="0" width="16" height="17">
<rect y="0.5" width="16" height="16" fill="#D9D9D9"/>
</mask>
<g mask="url(#mask0_1805_4277)">
<path d="M7.99976 11.6257L5.40626 13.1897C5.3096 13.2461 5.21276 13.2698 5.11576 13.2608C5.01876 13.2518 4.93098 13.2192 4.85243 13.1628C4.77376 13.1064 4.71304 13.0327 4.67026 12.9417C4.6276 12.8507 4.62076 12.75 4.64976 12.6397L5.33826 9.69483L3.04859 7.71283C2.96304 7.63849 2.90854 7.55238 2.88509 7.45449C2.86154 7.3566 2.86771 7.26149 2.9036 7.16916C2.93948 7.07694 2.99121 7.00155 3.05876 6.94299C3.12632 6.88444 3.21865 6.84616 3.33576 6.82816L6.35743 6.56416L7.5306 3.78333C7.57326 3.67988 7.63798 3.60338 7.72476 3.55382C7.81154 3.50427 7.90321 3.47949 7.99976 3.47949C8.09632 3.47949 8.18798 3.50427 8.27476 3.55382C8.36154 3.60338 8.42626 3.67988 8.46893 3.78333L9.64209 6.56416L12.6638 6.82816C12.7809 6.84616 12.8732 6.88444 12.9408 6.94299C13.0083 7.00155 13.06 7.07694 13.0959 7.16916C13.1318 7.26149 13.138 7.3566 13.1144 7.45449C13.091 7.55238 13.0365 7.63849 12.9509 7.71283L10.6613 9.69483L11.3498 12.6397C11.3788 12.75 11.3719 12.8507 11.3293 12.9417C11.2865 13.0327 11.2258 13.1064 11.1471 13.1628C11.0685 13.2192 10.9808 13.2518 10.8838 13.2608C10.7868 13.2698 10.6899 13.2461 10.5933 13.1897L7.99976 11.6257Z" fill="#FFC000"/>
</g>
</svg>
