<svg width="16" height="17" viewBox="0 0 16 17" fill="none" xmlns="http://www.w3.org/2000/svg">
<path d="M5.00651 14.2012C5.8875 14.7093 6.90968 15 7.99976 15C11.3135 15 14 12.3137 14 9C14 5.68629 11.3137 3 8 3C4.68629 3 2 5.68629 2 9C2 10.0901 2.2907 11.1123 2.7988 11.9933L2.80076 11.9967C2.84965 12.0814 2.87431 12.1242 2.88547 12.1646C2.896 12.2027 2.89895 12.2369 2.89625 12.2764C2.89335 12.3187 2.87907 12.3627 2.84979 12.4505L2.33724 13.9882L2.33659 13.9902C2.22845 14.3146 2.17438 14.4768 2.21292 14.5849C2.24653 14.6792 2.32112 14.7535 2.41536 14.7871C2.52321 14.8256 2.6847 14.7718 3.0077 14.6641L3.01172 14.6626L4.54936 14.1501C4.63692 14.1209 4.68142 14.1061 4.72373 14.1032C4.76317 14.1005 4.79718 14.1041 4.83529 14.1146C4.87579 14.1258 4.91856 14.1504 5.00376 14.1996L5.00651 14.2012Z" stroke="#FFC000" stroke-width="1.33333" stroke-linecap="round" stroke-linejoin="round"/>
<circle cx="5.35008" cy="9.00925" r="0.65" fill="#FFC000"/>
<circle cx="7.95009" cy="9.00925" r="0.65" fill="#FFC000"/>
<circle cx="10.6501" cy="9.00925" r="0.65" fill="#FFC000"/>
</svg>
