<svg width="24" height="24" viewBox="0 0 24 24" fill="none" xmlns="http://www.w3.org/2000/svg">
<g clip-path="url(#clip0_757_2451)">
<path d="M12.922 16.587L9.251 20.258C8.51229 20.9468 7.53495 21.3219 6.52508 21.304C5.51521 21.2861 4.55175 20.8767 3.83788 20.1622C3.12401 19.4477 2.71552 18.4839 2.69857 17.474C2.68161 16.4641 3.05751 15.4871 3.747 14.749L3.745 14.751L7.416 11.08C7.63886 10.8325 7.75819 10.5088 7.74936 10.1758C7.74053 9.84282 7.60422 9.52593 7.36856 9.29052C7.13289 9.05511 6.81585 8.91914 6.48286 8.91068C6.14986 8.90221 5.82632 9.02189 5.579 9.24503L5.58 9.24403L1.909 12.915C0.742409 14.1434 0.102001 15.779 0.124397 17.4729C0.146794 19.1668 0.830222 20.7849 2.02888 21.982C3.22754 23.1791 4.84653 23.8604 6.54046 23.8806C8.23439 23.9008 9.86916 23.2582 11.096 22.09L11.093 22.092L14.764 18.421C14.9869 18.1735 15.1062 17.8498 15.0974 17.5168C15.0885 17.1838 14.9522 16.8669 14.7166 16.6315C14.4809 16.3961 14.1638 16.2601 13.8309 16.2517C13.4979 16.2432 13.1743 16.3629 12.927 16.586L12.928 16.585L12.922 16.587ZM24.007 6.48903C24.0064 5.20487 23.6251 3.94972 22.9113 2.88223C22.1975 1.81474 21.1833 0.982837 19.9968 0.491686C18.8103 0.000533849 17.5048 -0.127816 16.2453 0.12286C14.9859 0.373536 13.829 0.991984 12.921 1.90003L9.25 5.57103C9.1189 5.68905 9.01318 5.83251 8.9393 5.99269C8.86541 6.15287 8.8249 6.32641 8.82022 6.50275C8.81555 6.67909 8.84681 6.85453 8.91211 7.0184C8.9774 7.18227 9.07536 7.33114 9.20003 7.45594C9.32469 7.58074 9.47345 7.67887 9.63725 7.74434C9.80105 7.80981 9.97646 7.84127 10.1528 7.83678C10.3291 7.8323 10.5027 7.79198 10.663 7.71827C10.8233 7.64455 10.9668 7.539 11.085 7.40803L11.086 7.40703L14.757 3.73603C15.4957 3.04721 16.473 2.6722 17.4829 2.69007C18.4928 2.70794 19.4562 3.1173 20.1701 3.83182C20.884 4.54634 21.2925 5.51018 21.3094 6.52006C21.3264 7.52994 20.9505 8.50694 20.261 9.24503L20.263 9.24303L16.592 12.914C16.4609 13.032 16.3552 13.1755 16.2813 13.3357C16.2074 13.4959 16.1669 13.6694 16.1622 13.8458C16.1575 14.0221 16.1888 14.1975 16.2541 14.3614C16.3194 14.5253 16.4174 14.6741 16.542 14.7989C16.6667 14.9237 16.8155 15.0219 16.9793 15.0873C17.1431 15.1528 17.3185 15.1843 17.4948 15.1798C17.6711 15.1753 17.8447 15.135 18.005 15.0613C18.1653 14.9876 18.3088 14.882 18.427 14.751L18.428 14.75L22.099 11.079C22.7044 10.48 23.1849 9.76663 23.5124 8.9804C23.8399 8.19418 24.008 7.35074 24.007 6.49903V6.48903Z" fill="black"/>
<path d="M7.412 16.592C7.647 16.827 7.971 16.972 8.33 16.972C8.689 16.972 9.013 16.827 9.248 16.592L16.59 9.24997C16.8129 9.0024 16.9322 8.67873 16.9234 8.34575C16.9145 8.01276 16.7782 7.69587 16.5426 7.46046C16.3069 7.22505 15.9899 7.08909 15.6569 7.08062C15.3239 7.07216 15.0003 7.19184 14.753 7.41497L14.754 7.41397L7.412 14.756C7.177 14.991 7.032 15.315 7.032 15.674C7.032 16.033 7.177 16.357 7.412 16.592Z" fill="black"/>
</g>
<defs>
<clipPath id="clip0_757_2451">
<rect width="24" height="24" fill="white"/>
</clipPath>
</defs>
</svg>
