<svg width="250" height="250" viewBox="0 0 250 250" fill="none" xmlns="http://www.w3.org/2000/svg">
<path d="M4 102.15L244.74 75.79V207.89L4 234.07" fill="#F5B04C"/>
<path d="M124.67 221.07C161.342 221.07 191.07 191.342 191.07 154.67C191.07 117.998 161.342 88.27 124.67 88.27C87.9983 88.27 58.27 117.998 58.27 154.67C58.27 191.342 87.9983 221.07 124.67 221.07Z" fill="#FDEEDB"/>
<path d="M4.30005 102.15L124.67 15C161.99 15 217.4 43.83 245.04 75.8L4.30005 102.16V102.15Z" fill="#FDEEDB"/>
<path d="M124.14 83C119.74 98.36 114.29 117.51 99.08 132.72C86.3 145.5 62.88 153.05 52.24 155.96C67.6 160.36 86.75 165.81 101.96 181.02C114.74 193.8 122.29 217.22 125.2 227.86C129.6 212.5 135.05 193.35 150.26 178.14C163.04 165.36 186.46 157.81 197.1 154.9C181.74 150.5 162.59 145.05 147.38 129.84C134.6 117.06 127.05 93.64 124.14 83Z" fill="#F5B04C" stroke="#FDEEDB" stroke-miterlimit="10"/>
</svg>
