<svg width="300" height="80" viewBox="0 0 300 80" fill="none" xmlns="http://www.w3.org/2000/svg">
<g clip-path="url(#clip0_882_2663)">
<path d="M11.0366 0.219543C10.9675 0.288734 9.96412 0.461723 8.8224 0.565521C7.68067 0.703911 5.98539 1.15368 5.01665 1.63805C3.28677 2.43379 1.2455 4.33666 1.62608 4.71724C1.76447 4.82103 1.66068 4.92483 1.45309 4.92483C1.21091 4.92483 1.07252 5.02862 1.10711 5.16701C1.10711 5.34 1.03792 5.68597 0.934124 5.96275C0.10378 7.90023 0.0345846 11.533 0.10378 40.5604C0.172975 57.5825 0.345964 71.9751 0.484355 72.5633C0.864929 74.051 1.52229 75.5041 1.76447 75.5041C1.90286 75.5041 2.07585 75.8155 2.17964 76.1961C2.28343 76.5766 2.7332 77.0264 3.18297 77.234C3.59815 77.4416 4.46309 77.8913 5.05125 78.2373C7.16171 79.5174 8.89159 79.6212 34.6669 79.6558H59.7848L60.9957 78.5487C62.9678 76.715 63.7289 75.0197 63.6943 72.5287C63.6943 71.3524 63.5905 69.9339 63.4521 69.3803C63.0716 67.8234 61.3071 65.8859 59.6118 65.1248C58.0549 64.4328 57.3629 64.4328 38.0574 64.4328H18.06L17.195 63.5333L16.2955 62.6684L16.2609 54.8839L16.2263 47.134L36.7427 47.0994C48.0216 47.0648 57.7089 46.9956 58.2971 46.9264C60.4767 46.6842 62.9332 44.8506 64.1095 42.5325C64.6285 41.5984 64.7323 40.8718 64.5593 39.1419C64.3171 36.2011 64.2825 36.0627 63.9019 36.0627C63.6943 36.0627 63.6597 35.959 63.7635 35.8552C63.8673 35.7168 63.6597 35.2324 63.2792 34.748C62.6218 33.8831 62.0682 33.5025 60.2 32.5338C59.5426 32.1878 54.4567 32.0494 37.8845 31.911L16.4339 31.738L16.3647 24.5763L16.2955 17.4492L17.195 16.5496L18.06 15.6847L37.6769 15.6501C48.4367 15.6155 57.6397 15.5463 58.1241 15.5117C58.6085 15.4425 59.162 15.3733 59.4042 15.3387C59.6118 15.3387 60.0616 15.062 60.3383 14.7506C60.6497 14.4738 60.8919 14.3008 60.8919 14.4046C60.8919 14.5084 61.2725 14.197 61.7569 13.7126C62.2412 13.2283 62.6218 12.7785 62.6218 12.6747C62.6218 12.5709 62.9678 12.0173 63.3483 11.4292C63.9711 10.5988 64.1095 9.90689 64.1095 7.90023C64.0749 5.16701 63.5559 3.71391 61.9644 2.15701C59.7848 0.0119553 60.9265 0.115746 34.909 0.115746C21.8657 0.0811539 11.1058 0.150345 11.0366 0.219543Z" fill="#EBAC46"/>
<path d="M84.0032 0.288742C83.8302 0.461731 83.1729 0.634712 82.3425 0.73851C81.962 0.807701 79.6093 3.16035 79.1595 3.9561C78.8136 4.57886 78.6752 7.96943 78.5368 18.4179L78.3638 32.084L76.6339 32.1186C73.7277 32.2224 72.2054 32.8106 70.4409 34.575C69.576 35.44 68.9186 36.2357 69.0224 36.3395C69.1262 36.4433 69.0224 36.7201 68.8148 36.9623C68.3305 37.5504 68.0883 41.5984 68.5035 42.1173C68.6419 42.2903 68.8148 42.6017 68.8494 42.8093C68.9186 42.9823 69.0224 43.3975 69.1262 43.6742C69.3684 44.297 71.9632 46.961 71.9632 46.5458C71.9632 46.4075 72.1016 46.4766 72.2746 46.7534C72.6206 47.2724 74.904 47.7914 77.0837 47.826H78.5368V61.3191C78.5022 71.0756 78.606 75.0197 78.9174 75.5733C79.3325 76.369 81.9966 79.1023 81.9966 78.7563C81.9966 78.6525 82.2387 78.8255 82.5501 79.1023C82.9307 79.5174 83.7956 79.6558 85.9753 79.6558C89.0891 79.6558 90.5768 79.1023 92.3413 77.234C94.1403 75.3311 94.1057 76.6804 94.1057 40.3183C94.1057 2.88357 94.2095 4.30208 91.9261 2.29541C90.0924 0.669319 88.6047 0.0811539 86.3213 0.0811539C85.1449 0.0811539 84.107 0.184952 84.0032 0.288742Z" fill="#EBAC46"/>
<path d="M137.253 0.28083C136.872 0.453819 136.457 0.52301 136.319 0.41922C136.146 0.350021 136.042 0.453819 136.042 0.661407C136.042 0.868996 135.938 0.972786 135.8 0.903587C135.627 0.834389 134.935 1.35336 134.243 2.11451C133.516 2.84106 133.032 3.42922 133.205 3.42922C133.343 3.42922 133.274 3.5676 133.101 3.70599C132.72 3.94818 130.541 10.245 128.742 16.2304C128.154 18.237 127.496 20.0707 127.323 20.2783C127.116 20.5205 127.081 20.7281 127.185 20.7281C127.323 20.7281 127.219 20.9702 126.977 21.2816C126.078 22.3887 124.071 24.257 123.863 24.1878C123.794 24.1532 123.31 24.3262 122.756 24.5338C122.134 24.776 118.535 24.8798 112.896 24.8798C108.018 24.8798 103.451 25.0182 102.69 25.1912C101.133 25.5717 99.1606 27.3362 98.4687 28.9277C97.8805 30.277 97.8459 34.3249 98.3649 35.3629C98.9185 36.4008 102.101 39.4108 102.69 39.4108C102.932 39.4108 103.278 39.6184 103.416 39.8606C103.658 40.2412 104.869 41.1753 106.253 42.0056C106.565 42.1786 107.049 42.5592 107.326 42.7668C108.986 44.1507 110.059 44.9464 110.336 44.9464C110.509 44.9464 110.889 45.2232 111.235 45.5346C111.547 45.8806 112.585 46.7801 113.519 47.5413C114.453 48.3024 115.249 49.1328 115.249 49.3403C115.283 49.5825 115.422 49.7901 115.629 49.7901C115.802 49.7901 115.941 49.8939 115.906 50.0323C115.871 50.2053 116.044 50.8972 116.286 51.6238C116.805 53.1461 116.771 53.2845 113.138 64.1482C111.408 69.1994 111.028 70.7909 111.028 72.5554C111.028 73.7317 111.235 74.908 111.443 75.1502C111.65 75.427 111.754 75.7038 111.65 75.8076C111.374 76.0844 114.626 79.2327 114.937 79.0252C115.11 78.9214 115.318 78.9906 115.456 79.1981C115.768 79.6825 120.68 79.6479 121.615 79.1635C122.03 78.9214 122.514 78.5408 122.652 78.2986C122.791 78.0218 123.102 77.8142 123.344 77.8142C123.725 77.8142 125.144 76.7763 126.389 75.5654C126.7 75.2886 127.081 75.0464 127.254 75.0464C127.565 75.0464 129.053 73.9047 130.195 72.7976C130.506 72.5208 130.887 72.2786 131.06 72.2786C131.233 72.2786 131.786 71.9326 132.305 71.4829C132.79 71.0677 133.551 70.4795 133.966 70.2027C134.381 69.926 135.073 69.4416 135.488 69.1302C137.149 67.9193 140.297 67.5041 141.854 68.3345C142.373 68.5767 142.927 68.8188 143.1 68.8188C143.273 68.8188 143.653 69.061 143.965 69.3378C145.141 70.4449 146.698 71.5867 147.044 71.5867C147.251 71.5867 147.563 71.7942 147.701 72.0364C147.943 72.417 149.154 73.3511 150.538 74.1815C150.85 74.3545 151.334 74.735 151.611 74.9426C153.064 76.1536 154.275 77.0185 154.828 77.2261C155.14 77.3299 155.416 77.6067 155.416 77.7796C155.416 78.5062 158.53 79.5441 160.71 79.5441C166.73 79.5441 169.671 74.0777 167.007 67.9539C166.73 67.3657 165.9 64.7363 165.104 62.0723C164.308 59.4429 163.374 56.4675 162.993 55.4987C162.232 53.4575 162.198 53.0077 162.786 51.1394C163.236 49.6171 166.834 45.6384 167.733 45.6384C168.045 45.6384 169.532 44.4967 170.674 43.3895C170.985 43.1128 171.366 42.8706 171.539 42.8706C171.85 42.8706 173.338 41.7289 174.48 40.6217C174.791 40.3449 175.172 40.1028 175.345 40.1028C175.518 40.1028 176.071 39.7568 176.59 39.307C177.109 38.8918 178.078 38.1307 178.735 37.5771C179.358 37.0582 180.154 36.0894 180.465 35.4667C181.192 33.9098 181.192 30.3808 180.465 28.9277C179.773 27.613 177.732 25.5025 177.421 25.8139C177.317 25.9523 177.213 25.8831 177.213 25.6755C177.213 25.1912 177.213 25.1912 166.488 24.9144C161.056 24.776 156.385 24.5684 156.108 24.4646C154.655 23.9802 154.102 23.5997 153.029 22.4233C152.061 21.3508 151.438 19.7593 149.293 13.255C146.075 3.42921 145.66 2.52968 143.515 1.07658C142.096 0.142441 141.543 -0.0305557 139.882 0.00404358C138.81 0.00404358 137.633 0.142441 137.253 0.28083ZM139.744 23.911C140.332 28.5471 142.2 32.4567 145.314 35.6397C146.421 36.7468 147.494 37.6809 147.701 37.6809C147.874 37.6809 148.324 37.9923 148.67 38.3729C149.016 38.7535 149.431 38.961 149.569 38.8572C149.742 38.7535 149.881 38.8572 149.881 39.0648C149.881 39.2724 150.054 39.3416 150.227 39.2378C150.434 39.134 150.573 39.2032 150.573 39.3762C150.573 39.5838 150.677 39.7222 150.85 39.6876C150.988 39.653 151.403 39.7914 151.784 39.999C152.164 40.2066 153.375 40.5525 154.482 40.7947C156.627 41.2445 156.8 41.4175 155.209 41.6251C152.752 41.971 148.324 43.8393 147.701 44.8426C147.563 45.0848 147.286 45.2924 147.078 45.2924C146.386 45.2924 142.996 49.2712 141.958 51.3124C140.989 53.2153 140.159 55.8793 139.709 58.5779C139.432 60.1002 139.156 60.1002 139.086 58.5779C139.086 57.8514 139.017 57.0556 138.983 56.8826C138.602 54.876 138.325 53.9072 138.083 53.7343C137.91 53.6305 137.772 53.2499 137.772 52.8693C137.772 52.5233 137.599 52.212 137.391 52.212C137.218 52.212 137.149 52.039 137.253 51.866C137.356 51.6584 137.287 51.52 137.08 51.52C136.872 51.52 136.768 51.3816 136.872 51.2086C136.976 51.0356 136.838 50.7243 136.561 50.4821C136.284 50.2399 136.042 49.9285 136.042 49.7555C136.042 49.3403 135.108 48.1986 133.17 46.2957C131.267 44.4621 127.531 42.49 124.521 41.8326C122.86 41.4521 122.237 41.0369 123.171 40.9331C124.279 40.8293 126.389 40.2412 127.392 39.826C128.05 39.5146 128.707 39.307 128.845 39.3416C128.949 39.3762 129.261 39.1686 129.468 38.8918C129.71 38.6151 130.091 38.3729 130.333 38.3729C130.852 38.3729 134.9 34.4979 135.938 32.9756C136.63 31.9723 137.772 29.6543 138.464 27.786C138.844 26.8518 139.259 24.084 139.225 23.0115C139.19 21.9736 139.571 22.6655 139.744 23.911Z" fill="#EBAC46"/>
<path d="M189.18 1.08448C188.281 1.63805 187.416 2.43379 187.208 2.81437C187.001 3.16035 186.551 3.7485 186.239 4.09448C185.651 4.68264 185.617 6.7931 185.617 39.6955C185.617 77.8913 185.478 75.5041 187.589 77.58C189.111 79.1023 190.633 79.6558 193.47 79.6558C194.993 79.6558 196.203 79.4828 196.446 79.2407C196.688 78.9985 196.861 78.9293 196.861 79.0677C196.861 79.379 197.484 78.8601 198.868 77.5108C200.148 76.2307 200.736 75.5041 200.494 75.5041C200.39 75.5041 200.459 75.1927 200.667 74.8121C200.909 74.3624 201.013 63.1873 201.013 39.7301V5.3054L200.251 3.99069C199.386 2.50299 197.587 0.703911 197.172 0.946091C197.034 1.04989 196.861 0.911491 196.792 0.703911C196.688 0.392532 195.65 0.219543 193.712 0.150345C190.979 0.0465546 190.702 0.0811539 189.18 1.08448Z" fill="#EBAC46"/>
<path d="M219.868 0.39249C219.488 0.565479 219.072 0.634674 218.934 0.53088C218.761 0.461685 218.657 0.565479 218.657 0.773064C218.657 0.980652 218.554 1.08444 218.415 1.01525C218.069 0.807659 215.544 3.40248 215.82 3.67927C215.924 3.78306 215.786 3.88685 215.544 3.88685C215.301 3.88685 215.198 3.99065 215.301 4.12904C215.44 4.23283 215.371 4.54421 215.163 4.821C214.609 5.44375 214.748 8.83432 215.371 10.322C215.647 10.9794 216.305 11.9481 216.858 12.4671C218.969 14.5083 218.484 14.4391 232.462 14.5429L245.401 14.6467L245.194 17.4837C244.917 22.0852 243.187 26.3753 239.935 30.4925C238.516 32.3261 234.503 36.0627 233.984 36.0627C233.811 36.0627 233.361 36.3395 232.981 36.6509C232.047 37.4812 231.078 38.104 230.351 38.3461C230.005 38.4845 229.729 38.7267 229.729 38.9343C229.729 39.1419 229.625 39.2111 229.521 39.0727C229.417 38.9689 228.691 39.2457 227.964 39.7301C227.238 40.1798 226.615 40.4912 226.615 40.3874C226.615 40.249 226.096 40.4566 225.508 40.768C223.328 41.9097 223.051 42.0135 222.152 42.1519C221.667 42.2557 220.802 42.5671 220.249 42.8438C219.695 43.1206 218.9 43.3282 218.519 43.3282C218.104 43.3282 216.858 43.8472 215.717 44.4699C213.502 45.6809 212.257 47.4799 211.98 49.9018C211.842 51.1819 212.464 54.2957 213.191 55.7834C214.229 57.8592 216.997 59.4507 219.522 59.4161C220.906 59.3815 224.055 58.7588 225.404 58.2398C226.407 57.8592 230.49 56.4753 231.112 56.3369C232.773 55.8872 240.177 52.3582 240.385 51.8738C240.454 51.7354 240.696 51.6317 240.938 51.6317C241.18 51.6317 241.734 51.3203 242.184 50.9397C242.634 50.5591 243.152 50.2477 243.395 50.2477C243.602 50.2477 244.087 49.971 244.467 49.625C244.813 49.279 245.367 48.8292 245.678 48.6563C247.616 47.5491 254.051 41.4599 255.504 39.3841C255.884 38.8651 256.403 38.2078 256.646 37.9656C256.853 37.6888 257.061 37.3428 257.061 37.1352C257.061 36.9276 257.165 36.7547 257.338 36.7547C257.476 36.7547 257.753 36.4779 257.926 36.0973C258.375 35.267 260.624 30.7347 260.694 30.5271C260.728 30.4233 261.005 29.8005 261.316 29.074C261.835 27.8976 262.562 25.3374 262.769 23.7805C262.839 23.3999 262.977 22.3966 263.115 21.5317C263.254 20.6667 263.358 18.7639 263.323 17.2762L263.288 14.6121H275.571C290.205 14.6121 289.998 14.6467 292.973 11.014C293.215 10.7026 293.319 10.4604 293.181 10.4604C293.077 10.4604 293.146 10.2528 293.354 10.0106C293.942 9.28409 293.907 5.20156 293.285 4.02525C292.593 2.67594 290.621 0.807659 289.548 0.496281C288.372 0.150303 220.699 0.0465164 219.868 0.39249Z" fill="#EBAC46"/>
<path d="M276.055 22.4312C276.02 24.5417 274.429 29.9389 273.391 31.565C273.08 32.0494 272.803 32.4992 272.803 32.603C272.803 33.0527 268.27 37.7926 267.855 37.7926C267.682 37.7926 267.233 38.104 266.817 38.4846C266.402 38.8997 266.056 39.1073 266.056 38.9689C266.056 38.8305 265.779 38.9689 265.468 39.2803C265.122 39.5571 264.707 39.8339 264.499 39.9031C263.946 40.0069 263.185 40.249 262.32 40.595C261.87 40.768 260.936 41.0102 260.244 41.114C258.133 41.46 258.237 41.6676 260.901 42.3249C263.773 43.0515 267.233 44.643 268.547 45.8193C271.488 48.4833 271.453 48.4487 272.457 50.144C272.837 50.7667 273.253 51.2857 273.425 51.2857C273.564 51.2857 273.598 51.4241 273.495 51.6317C273.391 51.8047 273.46 51.9777 273.702 51.9777C273.944 51.9777 274.048 52.0815 273.91 52.1852C273.806 52.3236 273.979 52.981 274.325 53.6729C275.155 55.3336 275.536 56.7867 275.917 59.5546C276.124 61.2844 276.435 61.838 276.47 60.5925C276.539 58.0323 278.027 53.5692 280.034 50.0402C280.726 48.7947 285.12 44.7121 285.777 44.7121C285.95 44.7121 286.123 44.5392 286.123 44.3316C286.123 44.1586 286.261 44.0548 286.434 44.1932C286.607 44.297 287.022 44.0894 287.368 43.778C287.714 43.432 288.06 43.1898 288.164 43.1898C288.268 43.2244 288.683 43.1207 289.064 42.9823C289.444 42.8439 290.724 42.5325 291.901 42.2557C293.112 42.0135 293.977 41.7022 293.804 41.5638C293.665 41.4254 292.489 41.0794 291.14 40.7334C289.825 40.422 288.545 40.0069 288.337 39.8339C288.13 39.6609 287.853 39.6263 287.749 39.7647C287.611 39.8685 287.507 39.7993 287.507 39.5571C287.507 39.3149 287.368 39.2457 287.161 39.3495C286.988 39.4533 286.815 39.4187 286.815 39.2803C286.815 39.1073 286.227 38.6922 285.535 38.3116C284.047 37.4812 281.245 34.8172 280.38 33.3295C280.034 32.7414 279.618 32.257 279.48 32.257C279.342 32.257 279.203 32.084 279.203 31.911C279.203 31.7034 278.927 30.9077 278.546 30.0773C277.162 26.9289 277.024 26.5138 276.608 23.1232C276.401 21.4625 276.09 21.0819 276.055 22.4312Z" fill="#EBAC46"/>
<path d="M211.945 64.4674C210.527 64.848 207.967 66.5433 207.205 67.5812C206.825 68.1348 206.617 68.5845 206.79 68.5845C206.929 68.5845 206.86 68.7229 206.583 68.8959C205.925 69.3111 205.649 73.0131 206.168 74.5699C206.617 75.9193 209.524 79.1022 210.008 78.7909C210.146 78.6871 210.354 78.8255 210.423 79.033C210.561 79.379 219.142 79.4828 252.425 79.4828C275.432 79.4828 294.565 79.379 294.945 79.2406C295.326 79.1022 295.741 78.9985 295.845 78.9985C296.295 78.9293 298.786 76.2306 299.374 75.1927C300.204 73.6358 300.135 70.6604 299.27 68.8959C298.474 67.3736 296.191 65.0556 295.741 65.3324C295.603 65.4362 295.464 65.367 295.464 65.194C295.464 64.9864 294.945 64.7442 294.322 64.6404C292.766 64.3636 213.018 64.1906 211.945 64.4674Z" fill="#EBAC46"/>
</g>
<defs>
<clipPath id="clip0_882_2663">
<rect width="299.962" height="79.5747" fill="white" transform="translate(0 0.081131)"/>
</clipPath>
</defs>
</svg>
